<?xml version="1.0" encoding="UTF-8"?>
    <svg xmlns="http://www.w3.org/2000/svg">

    <g id="main">
        <polygon points="60,20 80,40 120,40 140,20 140,170 60,170" stroke="black" stroke-width="3" fill="#CCCCCC"/>
    </g>
    <g id="face">
        <polygon points="100,80 90,65 110,65" fill="#e26bFF" stroke="black" stroke-width="3"/>
        <polyline points="70,85  78,95  120,95 128,85" fill="#CCCCCC" stroke="black" stroke-width="3"/>
        <line x1="103" y1="95" x2="100" y2="80"  stroke="black" stroke-width="3"/>
        <circle cx="80" cy="60" r="4"/>
        <circle cx="120" cy="60" r="4"/>
    </g>

    <g id="legs">

        <rect x="40" y="140" width="20" height="30" stroke="black" stroke-width="3" fill="#CCCCCC"/>
        <rect x="140" y="140" width="20" height="30" stroke="black" stroke-width="3" fill="#CCCCCC"/>
        <rect x="70" y="160" width="20" height="20" stroke="black" stroke-width="3" fill="#CCCCCC"/>
        <rect x="110" y="160" width="20" height="20" stroke="black" stroke-width="3" fill="#CCCCCC"/>
        <polygon points="44,170, 44,165 46,163 48,165, 48,170" stroke="black"/>
        <polygon points="52,170, 52,165 54,163 56,165, 56,170" stroke="black"/>
        <polygon points="144,170, 144,165 146,163 148,165, 148,170" stroke="black"/>
        <polygon points="152,170, 152,165 154,163 156,165, 156,170" stroke="black"/>

        <polygon points="74,180, 74,175 76,173 78,175, 78,180" stroke="black"/>
        <polygon points="82,180, 82,175 84,173 86,175, 86,180" stroke="black"/>
        <polygon points="114,180, 114,175 116,173 118,175, 118,180" stroke="black"/>
        <polygon points="122,180, 122,175 124,173 126,175, 126,180" stroke="black"/>
    </g>

</svg>